Normalized EMG Linear Envelopes
nRows=146
nColumns=4

endheader
time	 med_gas_r	  soleus_r	 tib_ant_r	
3.5	  0.005106	  0.025402	  0.001197	
3.5625	  0.005144	  0.025608	  0.001175	
3.625	  0.005599	  0.025770	  0.001180	
3.6875	  0.005856	  0.025876	  0.001217	
3.75	  0.005836	  0.025705	  0.001277	
3.8125	  0.006108	  0.025011	  0.001327	
3.875	  0.006426	  0.023729	  0.001323	
3.9375	  0.006562	  0.022034	  0.001281	
4	  0.006787	  0.020390	  0.001238	
4.0625	  0.006756	  0.019296	  0.001223	
4.125	  0.006883	  0.018899	  0.001218	
4.1875	  0.007243	  0.018946	  0.001216	
4.25	  0.008026	  0.018949	  0.001230	
4.3125	  0.008718	  0.018634	  0.001243	
4.375	  0.009146	  0.018058	  0.001241	
4.4375	  0.009442	  0.017567	  0.001252	
4.5	  0.009695	  0.017321	  0.001286	
4.5625	  0.009821	  0.017379	  0.001340	
4.625	  0.010114	  0.017837	  0.001415	
4.6875	  0.010499	  0.018637	  0.001513	
4.75	  0.011055	  0.019583	  0.001543	
4.8125	  0.011613	  0.020233	  0.001495	
4.875	  0.012087	  0.020052	  0.001408	
4.9375	  0.013721	  0.019438	  0.001355	
5	  0.018915	  0.020030	  0.001525	
5.0625	  0.032779	  0.024959	  0.002116	
5.125	  0.059915	  0.040564	  0.003291	
5.1875	  0.097893	  0.071335	  0.005060	
5.25	  0.135597	  0.115395	  0.007137	
5.3125	  0.172392	  0.166772	  0.009427	
5.375	  0.208855	  0.216951	  0.011770	
5.4375	  0.225422	  0.243388	  0.013082	
5.5	  0.229348	  0.251741	  0.013370	
5.5625	  0.243941	  0.267686	  0.013801	
5.625	  0.266033	  0.290208	  0.014284	
5.6875	  0.281368	  0.310791	  0.014804	
5.75	  0.284610	  0.329150	  0.015820	
5.8125	  0.288715	  0.355659	  0.017542	
5.875	  0.297806	  0.394178	  0.020162	
5.9375	  0.309976	  0.440465	  0.023261	
6	  0.315595	  0.484080	  0.025900	
6.0625	  0.314485	  0.508271	  0.027297	
6.125	  0.312424	  0.510777	  0.027799	
6.1875	  0.313229	  0.503395	  0.027836	
6.25	  0.330743	  0.501898	  0.028804	
6.3125	  0.369089	  0.512298	  0.031397	
6.375	  0.420062	  0.527727	  0.035675	
6.4375	  0.473986	  0.556326	  0.041465	
6.5	  0.522401	  0.593683	  0.047960	
6.5625	  0.561673	  0.627919	  0.054480	
6.625	  0.598302	  0.651396	  0.059728	
6.6875	  0.632363	  0.668484	  0.062962	
6.75	  0.669469	  0.680808	  0.064711	
6.8125	  0.691628	  0.673202	  0.063745	
6.875	  0.682412	  0.644982	  0.060621	
6.9375	  0.659158	  0.611305	  0.057250	
7	  0.644906	  0.580600	  0.054122	
7.0625	  0.642026	  0.567664	  0.052414	
7.125	  0.649495	  0.570443	  0.052547	
7.1875	  0.659071	  0.570586	  0.053700	
7.25	  0.657394	  0.556845	  0.055361	
7.3125	  0.644909	  0.531157	  0.057302	
7.375	  0.644266	  0.514621	  0.059606	
7.4375	  0.661366	  0.507406	  0.060765	
7.5	  0.678647	  0.504052	  0.060267	
7.5625	  0.686501	  0.504833	  0.059038	
7.625	  0.686762	  0.514132	  0.059147	
7.6875	  0.673504	  0.524545	  0.059641	
7.75	  0.641420	  0.520416	  0.059203	
7.8125	  0.607948	  0.499477	  0.058280	
7.875	  0.593233	  0.484143	  0.057730	
7.9375	  0.597634	  0.489080	  0.058470	
8	  0.607110	  0.509885	  0.061237	
8.0625	  0.627115	  0.531153	  0.065540	
8.125	  0.648465	  0.550888	  0.067781	
8.1875	  0.649361	  0.563259	  0.065277	
8.25	  0.635523	  0.565001	  0.059451	
8.3125	  0.609442	  0.553804	  0.052896	
8.375	  0.582048	  0.540182	  0.049123	
8.4375	  0.569107	  0.526155	  0.049073	
8.5	  0.563328	  0.508984	  0.050775	
8.5625	  0.557049	  0.486449	  0.050727	
8.625	  0.542785	  0.462281	  0.048818	
8.6875	  0.523231	  0.440167	  0.047064	
8.75	  0.506395	  0.421267	  0.046704	
8.8125	  0.503352	  0.407856	  0.047642	
8.875	  0.518423	  0.401304	  0.049373	
8.9375	  0.534799	  0.397850	  0.051450	
9	  0.544938	  0.404592	  0.053797	
9.0625	  0.552921	  0.425249	  0.055900	
9.125	  0.566836	  0.445992	  0.056573	
9.1875	  0.584355	  0.446237	  0.056330	
9.25	  0.601246	  0.424991	  0.054981	
9.3125	  0.607673	  0.404673	  0.052706	
9.375	  0.600624	  0.396548	  0.050046	
9.4375	  0.583243	  0.397618	  0.047472	
9.5	  0.562680	  0.400880	  0.046300	
9.5625	  0.546853	  0.405582	  0.047370	
9.625	  0.544570	  0.414519	  0.049363	
9.6875	  0.548685	  0.425825	  0.049870	
9.75	  0.538686	  0.427195	  0.049172	
9.8125	  0.516334	  0.408201	  0.048080	
9.875	  0.485903	  0.372694	  0.046516	
9.9375	  0.443826	  0.325248	  0.046064	
10	  0.380985	  0.263080	  0.047998	
10.0625	  0.296565	  0.192612	  0.052159	
10.125	  0.203099	  0.126144	  0.056930	
10.1875	  0.114539	  0.077012	  0.055502	
10.25	  0.049040	  0.046180	  0.047615	
10.3125	  0.012655	  0.030193	  0.043825	
10.375	 -0.001368	  0.023803	  0.048930	
10.4375	 -0.003153	  0.022735	  0.058779	
10.5	 -0.000544	  0.023726	  0.061149	
10.5625	  0.002444	  0.023663	  0.051854	
10.625	  0.004442	  0.021845	  0.039346	
10.6875	  0.005155	  0.019826	  0.027653	
10.75	  0.004931	  0.018418	  0.017492	
10.8125	  0.004377	  0.017682	  0.010524	
10.875	  0.003859	  0.017554	  0.006827	
10.9375	  0.003535	  0.017748	  0.005064	
11	  0.003382	  0.017919	  0.004199	
11.0625	  0.003319	  0.017842	  0.003471	
11.125	  0.003247	  0.017588	  0.002928	
11.1875	  0.003158	  0.017319	  0.002567	
11.25	  0.003150	  0.017041	  0.002282	
11.3125	  0.003242	  0.016858	  0.002026	
11.375	  0.003338	  0.016878	  0.001852	
11.4375	  0.003333	  0.017048	  0.001781	
11.5	  0.003196	  0.017171	  0.001787	
11.5625	  0.003059	  0.017210	  0.001828	
11.625	  0.002944	  0.017260	  0.001857	
11.6875	  0.002857	  0.017409	  0.001849	
11.75	  0.002766	  0.017640	  0.001814	
11.8125	  0.002643	  0.017898	  0.001782	
11.875	  0.002547	  0.018129	  0.001778	
11.9375	  0.002490	  0.018334	  0.001786	
12	  0.002510	  0.018490	  0.001821	
12.0625	  0.002576	  0.018631	  0.001862	
12.125	  0.002653	  0.018850	  0.001867	
12.1875	  0.002707	  0.019216	  0.001819	
12.25	  0.002719	  0.019621	  0.001808	
12.3125	  0.002671	  0.019872	  0.001910	
12.375	  0.002601	  0.020029	  0.002164	
12.4375	  0.002528	  0.020145	  0.002430	
12.5	  0.002443	  0.020226	  0.002544	
12.5625	  0.002381	  0.020287	  0.002347	
